<svg xmlns="http://www.w3.org/2000/svg" xmlns:xlink="http://www.w3.org/1999/xlink" width="592" height="809" viewBox="0 0 592 809">
  <defs>
    <radialGradient id="radial-gradient" cx="0.5" cy="0.5" r="0.5" gradientUnits="objectBoundingBox">
      <stop offset="0" stop-color="#e58553"/>
      <stop offset="1" stop-color="#e58553" stop-opacity="0.239"/>
    </radialGradient>
    <radialGradient id="radial-gradient-2" gradientTransform="matrix(-1, 0, 0, 1, 1, 0)" xlink:href="#radial-gradient"/>
    <linearGradient id="linear-gradient" x1="0.5" x2="0.5" y2="1" gradientUnits="objectBoundingBox">
      <stop offset="0" stop-color="#fff"/>
      <stop offset="1" stop-color="#dadfe2"/>
    </linearGradient>
    <linearGradient id="linear-gradient-2" x1="0.5" x2="0.5" y2="1" gradientUnits="objectBoundingBox">
      <stop offset="0" stop-color="#d27a21"/>
      <stop offset="1" stop-color="#4e3b27"/>
    </linearGradient>
  </defs>
  <g id="Group_67" data-name="Group 67" transform="translate(-138 -131)">
    <g id="Group_66" data-name="Group 66">
      <g id="Rectangle_9" data-name="Rectangle 9" transform="translate(138 131)" fill="#fffcdc" stroke="#3778bb" stroke-width="10">
        <rect width="592" height="809" stroke="none"/>
        <rect x="5" y="5" width="582" height="799" fill="none"/>
      </g>
      <g id="Group_65" data-name="Group 65" transform="translate(-204)">
        <path id="Path_43" data-name="Path 43" d="M166.5,0A166.5,166.5,0,0,1,333,166.5c0,30.253-39,125.5-39,125.5L161,334,38,283S0,197.673,0,166.5A166.5,166.5,0,0,1,166.5,0Z" transform="translate(474 187)" fill="#3a260b"/>
        <g id="Group_57" data-name="Group 57" transform="translate(357 56)">
          <g id="Path_52" data-name="Path 52" transform="matrix(-0.899, 0.438, -0.438, -0.899, 173.756, 391.465)" fill="#d29055" stroke-linecap="round" stroke-linejoin="round">
            <path d="M 27.53713607788086 96.41110992431641 C 23.8635196685791 96.41110992431641 20.55624389648438 95.81742858886719 17.70716667175293 94.64656829833984 C 14.75112056732178 93.43175506591797 12.20938205718994 91.55618286132813 10.15255165100098 89.07196807861328 C 5.424418926239014 83.36136627197266 3.018230438232422 74.29145050048828 3.000072002410889 62.11055374145508 C 3.133531332015991 61.38827514648438 4.261386394500732 57.01142501831055 13.60847473144531 32.03686141967773 C 14.93155097961426 28.50043106079102 16.07711982727051 25.01197052001953 17.18498229980469 21.63837051391602 C 18.97532081604004 16.18646240234375 20.6663818359375 11.03690814971924 22.57178115844727 7.518569946289063 C 24.76513671875 3.468477725982666 26.45599746704102 3.00009298324585 27.53704261779785 3.00009298324585 C 30.74769020080566 3.00009298324585 33.89779663085938 4.118385314941406 36.89990615844727 6.323893070220947 C 39.97001266479492 8.57936954498291 42.75330352783203 11.85350799560547 45.17244338989258 16.05535507202148 C 47.65882873535156 20.37400054931641 49.61627578735352 25.42492294311523 50.99039840698242 31.06778526306152 C 52.42612075805664 36.96363067626953 53.15410614013672 43.23431015014648 53.15410614013672 49.70561599731445 C 53.15410614013672 56.17694091796875 52.4261360168457 62.44760131835938 50.99042892456055 68.34344482421875 C 49.6163215637207 73.98630523681641 47.65888977050781 79.03721618652344 45.17250442504883 83.35588073730469 C 42.75336837768555 87.55772399902344 39.97008895874023 90.83184814453125 36.89998245239258 93.08732604980469 C 33.89788818359375 95.29283142089844 30.74778175354004 96.41110992431641 27.53713607788086 96.41110992431641 Z" stroke="none"/>
            <path d="M 27.53712272644043 99.41111755371094 L 27.53712272644043 93.41111755371094 C 32.86564254760742 93.41111755371094 38.34586334228516 89.20053863525391 42.57260513305664 81.85903930664063 C 47.46162414550781 73.36720275878906 50.15410232543945 61.94821929931641 50.15410232543945 49.70561981201172 C 50.15408325195313 23.95089340209961 38.23629379272461 6.00260066986084 27.49498748779297 6.00260066986084 C 27.49433135986328 6.00260066986084 27.49339866638184 6.00260066986084 27.49274444580078 6.00260066986084 C 25.2852840423584 6.587060928344727 21.87004280090332 16.98704147338867 20.03524398803711 22.57427978515625 C 18.92190361022949 25.96460151672363 17.74918365478516 29.53068161010742 16.41814422607422 33.08840179443359 C 7.244505882263184 57.59965515136719 6.093565464019775 61.97483062744141 6.003857135772705 61.97483062744141 C 6.002223968505859 61.97483062744141 6.000935077667236 61.97336959838867 5.999963760375977 61.97056198120117 C 5.999983310699463 93.41110229492188 22.21026420593262 93.41111755371094 27.53712272644043 93.41111755371094 L 27.53712272644043 99.41111755371094 M 27.53712272644043 99.41111755371094 C 11.73238372802734 99.41110229492188 -1.64666744240094e-05 89.42215728759766 -3.64666739187669e-05 61.97056198120117 C -3.64666739187669e-05 59.87266159057617 8.721723556518555 36.53509902954102 10.79880332946777 30.98530006408691 C 16.56076431274414 15.58418083190918 19.26448440551758 8.073852222878486e-05 27.53704261779785 8.073852222878486e-05 C 43.34176254272461 0.0001007385289995 56.15408325195313 22.25402069091797 56.15410232543945 49.70561981201172 C 56.15412521362305 77.15721893310547 43.34186172485352 99.41111755371094 27.53712272644043 99.41111755371094 Z" stroke="none" fill="#8d5927"/>
          </g>
          <g id="Path_44" data-name="Path 44" transform="matrix(0.899, 0.438, -0.438, 0.899, 431.386, 303.677)" fill="#d29055" stroke-linecap="round" stroke-linejoin="round">
            <path d="M 28.53713607788086 96.41117095947266 C 27.45608901977539 96.41117095947266 25.76522827148438 95.94277191162109 23.57185935974121 91.89267730712891 C 21.66645812988281 88.37432098388672 19.97539710998535 83.22475433349609 18.18504333496094 77.77285003662109 C 17.07718086242676 74.39923095703125 15.93161296844482 70.91075134277344 14.60867404937744 67.37466430664063 C 5.261423110961914 42.39968490600586 4.133561611175537 38.02284622192383 4.000102519989014 37.30058670043945 C 4.018245697021484 25.11967468261719 6.424418926239014 16.04973983764648 11.15255069732666 10.33913898468018 C 13.20938205718994 7.854908466339111 15.75112056732178 5.979339122772217 18.70716667175293 4.764523983001709 C 21.55624389648438 3.593677759170532 24.8635196685791 3.000000953674316 28.53713607788086 3.000000953674316 C 31.74778175354004 3.000000953674316 34.89788818359375 4.118293285369873 37.89999771118164 6.323801040649414 C 40.9701042175293 8.579277992248535 43.75338363647461 11.85341644287109 46.17251968383789 16.05527687072754 C 48.65890502929688 20.37393951416016 50.61635208129883 25.42486190795898 51.99045944213867 31.06772422790527 C 53.42618179321289 36.96358489990234 54.15415191650391 43.23426055908203 54.15415191650391 49.70558547973633 C 54.15415191650391 56.17691040039063 53.42618179321289 62.44760131835938 51.99045944213867 68.34344482421875 C 50.61635208129883 73.98632049560547 48.65890502929688 79.03724670410156 46.17251968383789 83.35591125488281 C 43.75338363647461 87.55775451660156 40.9701042175293 90.83189392089844 37.89999771118164 93.08737182617188 C 34.89788818359375 95.29287719726563 31.74778175354004 96.41117095947266 28.53713607788086 96.41117095947266 Z" stroke="none"/>
            <path d="M 28.53713417053223 6.000007629394531 C 23.21027374267578 6.000007629394531 6.999992370605469 6.000007629394531 6.944072723388672 36.71858596801758 C 7.054355621337891 37.283447265625 8.077533721923828 41.36536407470703 17.41845321655273 66.32344055175781 C 18.74923324584961 69.88050842285156 19.92197418212891 73.44656372070313 21.03531265258789 76.83690643310547 C 22.87011337280273 82.42414855957031 26.28537368774414 92.82416534423828 28.53713417053223 93.41116333007813 C 39.23465347290039 93.41116333007813 51.15415191650391 75.46192932128906 51.15415191650391 49.70558547973633 C 51.15415191650391 23.94924926757813 39.23465347290039 6.000007629394531 28.53713417053223 6.000007629394531 M 28.53713417053223 7.62939453125e-06 C 44.34187316894531 7.62939453125e-06 57.15415573120117 22.25394439697266 57.15415573120117 49.70558547973633 C 57.15415573120117 77.1572265625 44.34187316894531 99.41116333007813 28.53713417053223 99.41116333007813 C 20.26457595825195 99.41116333007813 17.56083297729492 83.8270263671875 11.79887390136719 68.42588806152344 C 9.721775054931641 62.87606430053711 0.9999923706054688 39.53848648071289 0.9999923706054688 37.44056701660156 C 0.9999923706054688 9.988945007324219 12.73239517211914 7.62939453125e-06 28.53713417053223 7.62939453125e-06 Z" stroke="none" fill="#8d5927"/>
          </g>
        </g>
        <path id="Union_4" data-name="Union 4" d="M-2558-2848l10.621-17.25V-2940H-2502v112.344Zm56-92h45.379v74.75L-2446-2848l-56,17.845Z" transform="translate(3143 3468)" fill="#d29055"/>
        <g id="Union_3" data-name="Union 3" transform="translate(3050.587 3150)" fill="#d29055" stroke-linecap="round" stroke-linejoin="round">
          <path d="M -2409.6083984375 -2567.445068359375 L -2410.459716796875 -2567.697265625 L -2426.56689453125 -2572.46728515625 L -2427.01416015625 -2572.599609375 L -2427.400146484375 -2572.86181640625 L -2528.52685546875 -2641.51708984375 L -2529.542236328125 -2642.20654296875 L -2529.783447265625 -2643.41015625 L -2543.665771484375 -2712.724609375 L -2552.843994140625 -2744.140869140625 C -2554.044189453125 -2747.7353515625 -2555.119384765625 -2751.41650390625 -2556.041015625 -2755.08349609375 L -2558.34521484375 -2762.970458984375 L -2559.41162109375 -2766.620849609375 L -2558.469970703125 -2766.667236328125 C -2559.875244140625 -2774.9951171875 -2560.586669921875 -2783.500732421875 -2560.586669921875 -2791.999755859375 C -2560.586669921875 -2802.242919921875 -2559.554443359375 -2812.480712890625 -2557.51904296875 -2822.428466796875 C -2555.53466796875 -2832.124755859375 -2552.57421875 -2841.66259765625 -2548.71923828125 -2850.77685546875 C -2544.9345703125 -2859.724853515625 -2540.250244140625 -2868.35498046875 -2534.796630859375 -2876.427490234375 C -2529.395263671875 -2884.422607421875 -2523.1923828125 -2891.94091796875 -2516.360107421875 -2898.773193359375 C -2509.527587890625 -2905.60546875 -2502.009765625 -2911.80859375 -2494.0146484375 -2917.2099609375 C -2485.942138671875 -2922.663818359375 -2477.31201171875 -2927.34814453125 -2468.364013671875 -2931.1328125 C -2459.249755859375 -2934.98779296875 -2449.712158203125 -2937.948486328125 -2440.015625 -2939.9326171875 C -2430.06787109375 -2941.96826171875 -2419.830322265625 -2943.00048828125 -2409.587158203125 -2943.00048828125 C -2399.343994140625 -2943.00048828125 -2389.1064453125 -2941.96826171875 -2379.15869140625 -2939.9326171875 C -2369.462158203125 -2937.948486328125 -2359.924560546875 -2934.98779296875 -2350.810302734375 -2931.1328125 C -2341.8623046875 -2927.34814453125 -2333.232177734375 -2922.663818359375 -2325.15966796875 -2917.2099609375 C -2317.16455078125 -2911.80859375 -2309.646728515625 -2905.60546875 -2302.814208984375 -2898.773193359375 C -2295.98193359375 -2891.94091796875 -2289.779052734375 -2884.422607421875 -2284.377685546875 -2876.427490234375 C -2278.924072265625 -2868.35498046875 -2274.23974609375 -2859.724853515625 -2270.455078125 -2850.77685546875 C -2266.60009765625 -2841.66259765625 -2263.6396484375 -2832.124755859375 -2261.6552734375 -2822.428466796875 C -2259.619873046875 -2812.480712890625 -2258.587646484375 -2802.242919921875 -2258.587646484375 -2791.999755859375 C -2258.587646484375 -2783.500732421875 -2259.298583984375 -2774.99755859375 -2260.703369140625 -2766.672119140625 L -2259.6611328125 -2766.620849609375 L -2260.728759765625 -2762.9697265625 L -2264.054931640625 -2751.59423828125 C -2264.430908203125 -2750.237060546875 -2264.833251953125 -2748.861572265625 -2265.250732421875 -2747.50537109375 L -2275.42138671875 -2712.723388671875 L -2289.318115234375 -2643.409423828125 L -2289.559326171875 -2642.20556640625 L -2290.575439453125 -2641.516357421875 L -2391.80029296875 -2572.86083984375 L -2392.186279296875 -2572.599365234375 L -2392.63330078125 -2572.467041015625 L -2408.7568359375 -2567.697021484375 L -2409.6083984375 -2567.445068359375 Z" stroke="none"/>
          <path d="M -2409.60791015625 -2570.57373046875 L -2393.484375 -2575.34375 L -2292.259521484375 -2643.999267578125 L -2278.33740234375 -2713.440673828125 L -2268.1240234375 -2748.3681640625 C -2267.7109375 -2749.70947265625 -2267.316162109375 -2751.05859375 -2266.9404296875 -2752.415771484375 L -2263.608154296875 -2763.811767578125 L -2264.262451171875 -2763.843994140625 C -2262.506591796875 -2772.960205078125 -2261.587646484375 -2782.371337890625 -2261.587646484375 -2791.999755859375 C -2261.587646484375 -2873.73779296875 -2327.84912109375 -2940.00048828125 -2409.587158203125 -2940.00048828125 C -2491.3251953125 -2940.00048828125 -2557.586669921875 -2873.73779296875 -2557.586669921875 -2791.999755859375 C -2557.586669921875 -2782.371337890625 -2556.666748046875 -2772.955322265625 -2554.910888671875 -2763.839111328125 L -2555.465576171875 -2763.811767578125 L -2553.14501953125 -2755.868896484375 C -2552.225341796875 -2752.202880859375 -2551.16796875 -2748.58935546875 -2549.980712890625 -2745.03759765625 L -2540.74951171875 -2713.440673828125 L -2526.841796875 -2643.999267578125 L -2425.715087890625 -2575.34375 L -2409.60791015625 -2570.57373046875 M -2409.60791015625 -2564.57373046875 C -2410.181884765625 -2564.57373046875 -2410.755615234375 -2564.656005859375 -2411.3115234375 -2564.82080078125 L -2427.418701171875 -2569.590576171875 C -2428.01171875 -2569.766357421875 -2428.57373046875 -2570.032470703125 -2429.085205078125 -2570.379638671875 L -2530.2119140625 -2639.03515625 C -2531.513427734375 -2639.9189453125 -2532.416015625 -2641.2783203125 -2532.724853515625 -2642.821044921875 L -2546.632568359375 -2712.262451171875 L -2555.739990234375 -2743.35498046875 C -2556.906982421875 -2746.832275390625 -2558.00732421875 -2750.59326171875 -2558.964599609375 -2754.408935546875 L -2561.224853515625 -2762.129150390625 C -2561.530029296875 -2763.174072265625 -2561.541748046875 -2764.26806640625 -2561.27880859375 -2765.29736328125 C -2562.810791015625 -2774.06787109375 -2563.586669921875 -2783.03759765625 -2563.586669921875 -2791.999755859375 C -2563.586669921875 -2876.916015625 -2494.502685546875 -2946.00048828125 -2409.587158203125 -2946.00048828125 C -2324.671630859375 -2946.00048828125 -2255.587646484375 -2876.916015625 -2255.587646484375 -2791.999755859375 C -2255.587646484375 -2782.964599609375 -2256.375732421875 -2773.923828125 -2257.93212890625 -2765.08837890625 C -2257.63427734375 -2764.11865234375 -2257.565185546875 -2763.099609375 -2257.849365234375 -2762.127685546875 L -2261.181640625 -2750.73193359375 C -2261.549072265625 -2749.40234375 -2261.9599609375 -2747.998291015625 -2262.3896484375 -2746.602294921875 L -2272.57861328125 -2711.756591796875 L -2286.37646484375 -2642.81982421875 C -2286.68603515625 -2641.27685546875 -2287.589111328125 -2639.9169921875 -2288.8916015625 -2639.03369140625 L -2390.116455078125 -2570.378173828125 C -2390.6279296875 -2570.03125 -2391.189697265625 -2569.765625 -2391.7822265625 -2569.59033203125 L -2407.90576171875 -2564.8203125 C -2408.461181640625 -2564.656005859375 -2409.03466796875 -2564.57373046875 -2409.60791015625 -2564.57373046875 Z" stroke="none" fill="#8d5927"/>
        </g>
        <path id="Path_38" data-name="Path 38" d="M2724.222,3348.753l4.534-52.136,19.645-12.089,17.379,5.289v21.912h33.246l12.845-15.112,10.578,35.513-53.647,34Z" transform="translate(-2204 -2894)" fill="url(#radial-gradient)"/>
        <path id="Path_26" data-name="Path 26" d="M41.1.238c26.062,0,63.147,26.789,63.147,26.789H0S15.039.238,41.1.238Z" transform="matrix(-0.995, 0.105, -0.105, -0.995, 703.282, 509.011)" fill="#fff" stroke="#8d5927" stroke-linecap="round" stroke-linejoin="round" stroke-width="5"/>
        <path id="Path_39" data-name="Path 39" d="M2822.449,3348.753l-4.534-52.136-19.645-12.089-17.379,5.289v21.912h-33.246l-12.845-15.112-10.578,35.513,53.647,34Z" transform="translate(-2048 -2894)" fill="url(#radial-gradient-2)"/>
        <path id="Path_37" data-name="Path 37" d="M2826.445,3313.917l-13.417,22.361,10.222,12.139,7.028-7.028,11.5,7.028,10.861-7.028,9.583,7.028,11.5-12.139-21.083-26.195-10.861-6.389-11.5,6.389Z" transform="translate(-2201 -2884)" fill="rgba(220,134,83,0)"/>
        <g id="Group_54" data-name="Group 54" transform="translate(350 61)">
          <g id="Group_53" data-name="Group 53" transform="translate(177.212 269.383)">
            <path id="Path_32" data-name="Path 32" d="M2741.882,3269.5c2.268-2.834,23.441-31.569,23.441-31.569h15.88l31,16.636s8.318,47.639-31,52.932h-20.417l-8.318-13.611Z" transform="translate(-2735.212 -3209.383)" fill="url(#linear-gradient)"/>
            <g id="Ellipse_5" data-name="Ellipse 5" transform="translate(19.788 26.617)" stroke="#5d3a0d" stroke-width="5" fill="url(#linear-gradient-2)">
              <ellipse cx="26" cy="33.5" rx="26" ry="33.5" stroke="none"/>
              <ellipse cx="26" cy="33.5" rx="23.5" ry="31" fill="none"/>
            </g>
            <g id="Group_44" data-name="Group 44">
              <path id="Path_27" data-name="Path 27" d="M2945.826,3266.251s-22.455-22.191-40.155-19.021-30.645,31.7-30.645,31.7" transform="translate(-2868.372 -3220.383)" fill="none" stroke="#5d3a0d" stroke-linecap="round" stroke-linejoin="round" stroke-width="8"/>
              <path id="Path_28" data-name="Path 28" d="M2948.48,3264.423s-17.244-14.535-33.27-11.664-40.183,25.832-40.183,25.832" transform="translate(-2875.027 -3252.383)" fill="none" stroke="#5d3a0d" stroke-linecap="round" stroke-linejoin="round" stroke-width="6"/>
              <path id="Path_29" data-name="Path 29" d="M2937.215,3307.477h-19.434l-10.524-13.395" transform="translate(-2891.992 -3209.383)" fill="none" stroke="#5d3a0d" stroke-linecap="round" stroke-linejoin="round" stroke-width="5"/>
            </g>
            <g id="Ellipse_6" data-name="Ellipse 6" transform="translate(34.788 41.617)" fill="#5d3a0d" stroke="#5d3a0d" stroke-width="5">
              <ellipse cx="13" cy="16.5" rx="13" ry="16.5" stroke="none"/>
              <ellipse cx="13" cy="16.5" rx="10.5" ry="14" fill="none"/>
            </g>
            <g id="Group_48" data-name="Group 48" transform="translate(28.678 41.617)">
              <g id="Group_47" data-name="Group 47" transform="translate(0.11)">
                <path id="Path_30" data-name="Path 30" d="M8.5,0A8.5,8.5,0,1,1,0,8.5,8.5,8.5,0,0,1,8.5,0Z" fill="#eca437"/>
                <ellipse id="Ellipse_9" data-name="Ellipse 9" cx="6" cy="6.5" rx="6" ry="6.5" fill="#fff7dc"/>
              </g>
              <path id="Path_31" data-name="Path 31" d="M3.756,1.749c.906,10.11,9.321,17.465,5.371,18.208S2.014,17.247.671,12.7-.172-4.628,3.756,1.749Z" transform="translate(0 28.023) rotate(-25)" fill="#efe4bd"/>
            </g>
          </g>
          <g id="Group_52" data-name="Group 52" transform="translate(322.547 269.383)">
            <path id="Path_33" data-name="Path 33" d="M2812.941,3269.5c-2.268-2.834-23.441-31.569-23.441-31.569h-15.88l-31,16.636s-8.318,47.639,31,52.932h20.417l8.318-13.611Z" transform="translate(-2739.026 -3209.383)" fill="url(#linear-gradient)"/>
            <g id="Ellipse_4" data-name="Ellipse 4" transform="translate(9.453 26.617)" stroke="#5d3a0d" stroke-width="5" fill="url(#linear-gradient-2)">
              <ellipse cx="26" cy="33.5" rx="26" ry="33.5" stroke="none"/>
              <ellipse cx="26" cy="33.5" rx="23.5" ry="31" fill="none"/>
            </g>
            <path id="Path_27-2" data-name="Path 27" d="M2875.026,3266.251s22.455-22.191,40.155-19.021,30.645,31.7,30.645,31.7" transform="translate(-2875.026 -3220.383)" fill="none" stroke="#5d3a0d" stroke-linecap="round" stroke-linejoin="round" stroke-width="8"/>
            <path id="Path_28-2" data-name="Path 28" d="M2875.027,3264.423s17.244-14.535,33.27-11.664,40.183,25.832,40.183,25.832" transform="translate(-2871.026 -3252.383)" fill="none" stroke="#5d3a0d" stroke-linecap="round" stroke-linejoin="round" stroke-width="6"/>
            <path id="Path_29-2" data-name="Path 29" d="M2907.257,3307.477h19.434l10.524-13.395" transform="translate(-2875.026 -3209.383)" fill="none" stroke="#5d3a0d" stroke-linecap="round" stroke-linejoin="round" stroke-width="5"/>
            <g id="Ellipse_7" data-name="Ellipse 7" transform="translate(20.453 41.617)" fill="#5d3a0d" stroke="#5d3a0d" stroke-width="5">
              <ellipse cx="13" cy="16.5" rx="13" ry="16.5" stroke="none"/>
              <ellipse cx="13" cy="16.5" rx="10.5" ry="14" fill="none"/>
            </g>
            <g id="Group_49" data-name="Group 49" transform="translate(14.864 41.617)">
              <g id="Group_47-2" data-name="Group 47" transform="translate(0.11)">
                <path id="Path_30-2" data-name="Path 30" d="M8.5,0A8.5,8.5,0,1,1,0,8.5,8.5,8.5,0,0,1,8.5,0Z" fill="#eca437"/>
                <ellipse id="Ellipse_9-2" data-name="Ellipse 9" cx="6" cy="6.5" rx="6" ry="6.5" transform="translate(0.48)" fill="#fff7dc"/>
              </g>
              <path id="Path_31-2" data-name="Path 31" d="M3.756,1.749c.906,10.11,9.321,17.465,5.371,18.208S2.014,17.247.671,12.7-.172-4.628,3.756,1.749Z" transform="translate(0 28.023) rotate(-25)" fill="#efe4bd"/>
            </g>
          </g>
        </g>
        <g id="Group_51" data-name="Group 51" transform="translate(355 56)">
          <path id="Path_34" data-name="Path 34" d="M2823.639,3317.417l-10.389,18.262,10.389,7.71" transform="translate(-2558 -2937.555)" fill="none" stroke="#8d5927" stroke-linecap="round" stroke-linejoin="round" stroke-width="4"/>
          <path id="Path_35" data-name="Path 35" d="M2811.361,3317.722l12.278,17.956-10.389,7.71" transform="translate(-2506 -2937.555)" fill="none" stroke="#8d5927" stroke-linecap="round" stroke-linejoin="round" stroke-width="4"/>
          <path id="Path_36" data-name="Path 36" d="M2831.583,3342.639l11.611,5.333,11.305-7.333" transform="matrix(0.999, 0.035, -0.035, 0.999, -2438.553, -3037.794)" fill="none" stroke="#8d5927" stroke-linecap="round" stroke-width="3"/>
        </g>
        <path id="Path_42" data-name="Path 42" d="M156.983,0A156.983,156.983,0,0,1,313.966,156.983c0,12.387-4.876,37.856-8.956,46.017-1.916-17.88-1.02-18.362-10.2-17.342-1.4-6.091,1.683-22.662,0-24.482-1.11-1.2-11.854,12.991-13.261,11.109-1.96-2.622-2.636-24.67-5.1-27.43-3.313-3.71-5.291,13.878-9.181,9.181-3.018-3.644-5.929-25.945-9.181-29.583-3.813-4.265-9.329,13.865-13.261,9.181-3.408-4.06-1.524-18.392-5.1-22.442-4.272-4.837-3.621,13.32-8.161,8.161-4.983-5.662-2.866-15.937-8.161-21.422-3.427-3.551-7.579,12.853-11.221,9.181-5.158-5.2-5.818-17.566-11.221-22.442-3.285-2.964-9.873,16.2-13.261,13.261-6.169-5.354-9.568-31.49-15.906-35.957-4.208-2.966-7.58,20.527-12,17.83-17.677-10.792-35.258-17.83-51.644-17.83-15.172,0-6.938,26.4-18.382,35.957-2.246,1.876-4.827-15.446-7.141-13.261-3.422,3.231-10.9,22.619-14.281,26.523-2.973,3.427-8.161-13.261-8.161-13.261l-10.2,21.422L40.8,107.111s3.981,28.109,0,37.744c-1.017,2.461-8.809-13.891-10.2-11.221-2.024,3.885-3.852,22.968-6.121,27.543-2.157,4.351-10.953-3.525-13.261,0-2.147,3.28-7.141,8.161-6.121,25.5C1.025,195.6,0,169.991,0,156.983A156.983,156.983,0,0,1,156.983,0Z" transform="translate(484 197)" fill="#5d3a0d"/>
        <path id="Path_46" data-name="Path 46" d="M-3.354,0H77" transform="translate(610.5 498.5)" fill="none" stroke="#8d5927" stroke-width="3"/>
        <path id="Union_7" data-name="Union 7" d="M-2361.456-2770.531h-187.677l-8.867-82.484,29.26-44.992L-2418.89-2940l57.5,12.822,65.812-9.489,105.251,38.659,29.26,44.992-8.867,82.484Z" transform="translate(2997.706 3557.848)" fill="#1bb3c5" stroke="#11a3b4" stroke-linecap="round" stroke-linejoin="round" stroke-width="6"/>
      </g>
    </g>
    <g id="Group_61" data-name="Group 61" transform="translate(-852)">
      <rect id="Rectangle_10" data-name="Rectangle 10" width="592" height="209" transform="translate(990 731)" fill="#3778bb"/>
      <text id="Austin" transform="translate(1113 885)" fill="#fff" font-size="120" font-family="SegoeUI-Semibold, Segoe UI" font-weight="600"><tspan x="0" y="0">Austin</tspan></text>
    </g>
  </g>
</svg>
