<svg xmlns="http://www.w3.org/2000/svg" xmlns:xlink="http://www.w3.org/1999/xlink" width="592" height="809" viewBox="0 0 592 809">
  <defs>
    <radialGradient id="radial-gradient" cx="0.5" cy="0.5" r="0.5" gradientUnits="objectBoundingBox">
      <stop offset="0" stop-color="#e58553"/>
      <stop offset="1" stop-color="#e58553" stop-opacity="0.239"/>
    </radialGradient>
    <radialGradient id="radial-gradient-2" gradientTransform="matrix(-1, 0, 0, 1, 1, 0)" xlink:href="#radial-gradient"/>
    <linearGradient id="linear-gradient" x1="0.5" x2="0.5" y2="1" gradientUnits="objectBoundingBox">
      <stop offset="0" stop-color="#fff"/>
      <stop offset="1" stop-color="#dadfe2"/>
    </linearGradient>
    <linearGradient id="linear-gradient-2" x1="0.5" x2="0.5" y2="1" gradientUnits="objectBoundingBox">
      <stop offset="0" stop-color="#d27a21"/>
      <stop offset="1" stop-color="#4e3b27"/>
    </linearGradient>
  </defs>
  <g id="Group_64" data-name="Group 64" transform="translate(-795 -131)">
    <g id="Group_63" data-name="Group 63">
      <g id="Rectangle_9" data-name="Rectangle 9" transform="translate(795 131)" fill="#fffcdc" stroke="#3778bb" stroke-width="10">
        <rect width="592" height="809" stroke="none"/>
        <rect x="5" y="5" width="582" height="799" fill="none"/>
      </g>
      <g id="Group_60" data-name="Group 60" transform="translate(386 88)">
        <path id="Path_43" data-name="Path 43" d="M161.644,0A161.644,161.644,0,0,1,323.288,161.644c0,29.371-37.863,121.84-37.863,121.84L156.3,324.258,36.892,274.746S0,191.907,0,161.644A161.644,161.644,0,0,1,161.644,0Z" transform="translate(542.029 164)" fill="#3a260b"/>
        <g id="Group_58" data-name="Group 58" transform="translate(509.706 330.124)">
          <g id="Path_52" data-name="Path 52" transform="matrix(-0.899, 0.438, -0.438, -0.899, 91.307, 86.744)" fill="#d29055" stroke-linecap="round" stroke-linejoin="round">
            <path d="M 26.7340202331543 93.51153564453125 C 23.17902183532715 93.51153564453125 19.97939109802246 92.93738555908203 17.22402191162109 91.80503082275391 C 14.36758995056152 90.63114929199219 11.91146755218506 88.81874084472656 9.923867225646973 86.41813659667969 C 5.34805154800415 80.89150238037109 3.018827676773071 72.10763549804688 3.000121116638184 60.30720520019531 C 3.134857416152954 59.59057998657227 4.248318672180176 55.30112075805664 13.29354381561279 31.13302993774414 C 14.57865142822266 27.69807624816895 15.6910982131958 24.31049156188965 16.76691246032715 21.03446006774902 C 18.50377464294434 15.74539852142334 20.14432907104492 10.74967575073242 21.99040603637695 7.340860366821289 C 24.09754371643066 3.4499831199646 25.7067756652832 2.999998569488525 26.73391342163086 2.999998569488525 C 29.83186721801758 2.999998569488525 32.87268447875977 4.079952239990234 35.77188110351563 6.209875583648682 C 38.74260711669922 8.392336845397949 41.43663787841797 11.56193733215332 43.77912902832031 15.63064479827881 C 46.18886566162109 19.8161678314209 48.08612823486328 24.71204566955566 49.41820526123047 30.18227577209473 C 50.81040573120117 35.89938354492188 51.51632690429688 41.98019790649414 51.51632690429688 48.25579833984375 C 51.51632690429688 54.53139877319336 50.8104362487793 60.61221313476563 49.41825103759766 66.32932281494141 C 48.08617401123047 71.79953765869141 46.18893051147461 76.69541168212891 43.77919006347656 80.88092041015625 C 41.43672943115234 84.94963073730469 38.74271392822266 88.11923217773438 35.77199172973633 90.30167388916016 C 32.87280654907227 92.43157958984375 29.83199119567871 93.51153564453125 26.7340202331543 93.51153564453125 Z" stroke="none"/>
            <path d="M 26.73402976989746 96.51152801513672 L 26.73402976989746 90.51152801513672 C 31.84228324890137 90.51152801513672 37.10721206665039 86.45549774169922 41.17882919311523 79.38343811035156 C 45.91050338745117 71.16497039794922 48.51633834838867 60.11029434204102 48.51631927490234 48.25578689575195 C 48.51630401611328 23.35383987426758 37.03664779663086 6.000022411346436 26.74792098999023 5.992895126342773 C 24.58810234069824 6.834549427032471 21.47603034973145 16.31065940856934 19.61662864685059 21.97244071960449 C 18.53515625 25.26549530029297 17.39599227905273 28.7291316986084 16.10321044921875 32.18458557128906 C 7.243155479431152 55.85786437988281 6.097030162811279 60.16883850097656 6.004588603973389 60.16883850097656 C 6.002600193023682 60.16883850097656 6.001091003417969 60.16683197021484 6.000011444091797 60.16298675537109 C 6.000029563903809 90.51151275634766 21.6058292388916 90.51152801513672 26.73402976989746 90.51152801513672 L 26.73402976989746 96.51152801513672 M 26.73401069641113 96.51152801513672 C 11.3902473449707 96.51151275634766 2.944169500551652e-05 86.81391143798828 1.1259876373515e-05 60.16298675537109 C 1.1259876373515e-05 58.12627792358398 8.467374801635742 35.46940231323242 10.48388385772705 30.08147621154785 C 16.07777404785156 15.12956809997559 18.70262908935547 -1.399591656081611e-05 26.73390197753906 4.18590207118541e-06 C 42.07766723632813 2.236771979369223e-05 54.51630401611328 21.6048583984375 54.51631927490234 48.25578689575195 C 54.516357421875 74.90669250488281 42.07779312133789 96.51155090332031 26.73401069641113 96.51152801513672 Z" stroke="none" fill="#8d5927"/>
          </g>
          <g id="Path_44" data-name="Path 44" transform="matrix(0.899, 0.438, -0.438, 0.899, 342.296, 1.942)" fill="#d29055" stroke-linecap="round" stroke-linejoin="round">
            <path d="M 26.73395347595215 93.51166534423828 C 25.70681571960449 93.51166534423828 24.09759902954102 93.06168365478516 21.99044609069824 89.17080688476563 C 20.14436912536621 85.76197814941406 18.50381469726563 80.7662353515625 16.76695442199707 75.4771728515625 C 15.69112300872803 72.20112609863281 14.5786771774292 68.81354522705078 13.29370784759521 65.37891387939453 C 4.248319625854492 41.21042251586914 3.134851694107056 36.92096328735352 3.000115156173706 36.20434951782227 C 3.018806457519531 24.40390777587891 5.348014831542969 15.62002182006836 9.923830986022949 10.09339046478271 C 11.91143035888672 7.692790508270264 14.3675537109375 5.880374908447266 17.22398376464844 4.706498146057129 C 19.9793529510498 3.574159622192383 23.17896842956543 3.000005722045898 26.73398399353027 3.000005722045898 C 29.83195304870605 3.000005722045898 32.87276840209961 4.079959392547607 35.77195358276367 6.209882736206055 C 38.74267578125 8.392329216003418 41.43669128417969 11.56194400787354 43.7791862487793 15.63065147399902 C 46.18890762329102 19.81617546081543 48.0861701965332 24.71205139160156 49.41824722290039 30.18228340148926 C 50.81043243408203 35.89940643310547 51.51633834838867 41.98022079467773 51.51633834838867 48.25583648681641 C 51.51633834838867 54.53145217895508 50.81043243408203 60.61226654052734 49.41823196411133 66.32939147949219 C 48.08615493774414 71.79962158203125 46.18889236450195 76.69549560546875 43.77917098999023 80.88101959228516 C 41.43667602539063 84.94972991943359 38.74266052246094 88.11933135986328 35.77193832397461 90.30178833007813 C 32.87273788452148 92.43171691894531 29.83192253112793 93.51166534423828 26.73395347595215 93.51166534423828 Z" stroke="none"/>
            <path d="M 26.73398780822754 6 C 21.60578918457031 6 6.000003814697266 6 5.942424774169922 35.61394500732422 C 6.051242828369141 36.16590881347656 7.052513122558594 40.14423751831055 16.10347747802734 64.32769012451172 C 17.39631652832031 67.78327178955078 18.53562545776367 71.24761962890625 19.61722183227539 74.54125213623047 C 21.47635269165039 80.20263671875 24.58798789978027 89.67807006835938 26.73395156860352 90.51167297363281 C 37.03671264648438 90.51167297363281 48.51633453369141 73.15782165527344 48.51633453369141 48.25583648681641 C 48.51633453369141 36.40045547485352 45.91064071655273 25.34552764892578 41.17927932739258 17.12747192382813 C 37.10789489746094 10.05580139160156 31.84278678894043 6 26.73398780822754 6 M 26.73398780822754 0 C 42.07775115966797 -1.52587890625e-05 54.51633453369141 21.60487365722656 54.51633453369141 48.25583648681641 C 54.51633453369141 74.90679931640625 42.07773208618164 96.51167297363281 26.73395156860352 96.51167297363281 C 18.70267868041992 96.51167297363281 16.07780456542969 81.38207244873047 10.4838981628418 66.43013000488281 C 8.467388153076172 61.04218292236328 -1.1444091796875e-05 38.38527297973633 -1.1444091796875e-05 36.34856414794922 C 3.814697265625e-06 9.697601318359375 11.39020538330078 0 26.73398780822754 0 Z" stroke="none" fill="#8d5927"/>
          </g>
        </g>
        <path id="Union_4" data-name="Union 4" d="M0,85,9.009,69.062V0H47.5V97.845ZM47.5,0H85.991V69.062L95,85,47.5,95.346Z" transform="translate(658 479)" fill="#d29055"/>
        <g id="Union_3" data-name="Union 3" transform="translate(558.475 186.329)" fill="#d29055" stroke-linecap="round" stroke-linejoin="round">
          <path d="M 141.8757019042969 352.7763366699219 L 141.8757019042969 351.2923889160156 L 121.851936340332 346.9208374023438 L 121.7284774780273 346.8938903808594 L 121.6077117919922 346.8566589355469 C 121.4588928222656 346.8107604980469 117.8961639404297 345.7075805664063 112.1126174926758 343.5359802246094 C 106.793571472168 341.5387573242188 98.51734161376953 338.2217407226563 89.29593658447266 333.7615356445313 C 78.90975189208984 328.7378845214844 69.46047973632813 323.3149719238281 61.2105712890625 317.6434020996094 C 50.82343673706055 310.5025329589844 42.30393600463867 302.9338073730469 35.88875198364258 295.1474304199219 C 29.45093536376953 287.3334045410156 24.09052658081055 278.0389709472656 19.95634460449219 267.5223083496094 C 16.6677074432373 259.1565246582031 14.14243507385254 249.9999847412109 12.45066261291504 240.3069763183594 C 10.94843578338623 231.7001647949219 10.39393520355225 224.2455749511719 10.19325351715088 219.507568359375 C 10.01464176177979 215.2906036376953 10.07399272918701 212.4419403076172 10.10515594482422 211.4654235839844 L 8.368983268737793 202.4351806640625 C 4.694124698638916 193.6187438964844 1.868366122245789 184.4046478271484 -0.03170099481940269 175.0423889160156 C -2.001928329467773 165.3345642089844 -3.000882863998413 155.3442993164063 -3.000882863998413 145.34912109375 C -3.000882863998413 135.2860717773438 -1.988019227981567 125.2283935546875 0.00952627882361412 115.4555282592773 C 1.956662654876709 105.9294815063477 4.862026214599609 96.55929565429688 8.644980430603027 87.60530090332031 C 12.35898113250732 78.81448364257813 16.95575332641602 70.33589172363281 22.3076171875 62.40511703491211 C 27.60816192626953 54.55038833618164 33.69534301757813 47.16420745849609 40.40011596679688 40.45179748535156 C 47.10498046875 33.73934555053711 54.4827995300293 27.64511680603027 62.32870864868164 22.33847999572754 C 70.25075531005859 16.98034477233887 78.71997833251953 12.3781623840332 87.50115966796875 8.659798622131348 C 96.4454345703125 4.872344493865967 105.8054351806641 1.963480949401855 115.3212051391602 0.01407179981470108 C 125.0835266113281 -1.985928177833557 135.1303863525391 -2.999973773956299 145.1826171875 -2.999973773956299 C 155.2349395751953 -2.999973773956299 165.2818908691406 -1.985928177833557 175.0442962646484 0.01407179981470108 C 184.5600738525391 1.963480949401855 193.9201202392578 4.872344493865967 202.8644409179688 8.659798622131348 C 211.6456604003906 12.3781623840332 220.1148834228516 16.98034477233887 228.0368957519531 22.33847999572754 C 235.8827972412109 27.64511680603027 243.2606201171875 33.73934555053711 249.9654388427734 40.45179748535156 C 256.6701965332031 47.16420745849609 262.7573547363281 54.55038833618164 268.0578308105469 62.40511703491211 C 273.40966796875 70.33589172363281 278.0063781738281 78.81448364257813 281.7203979492188 87.60530090332031 C 285.5032958984375 96.55929565429688 288.4086608886719 105.9294815063477 290.3557434082031 115.4555282592773 C 292.3533020019531 125.2283935546875 293.3661193847656 135.2860717773438 293.3661193847656 145.34912109375 C 293.3661193847656 155.1884307861328 292.3978576660156 165.0262603759766 290.4881591796875 174.5893402099609 C 288.6456909179688 183.8158721923828 285.9037780761719 192.9051513671875 282.3377380371094 201.6090240478516 L 280.4427490234375 211.4654235839844 C 280.4739379882813 212.4419403076172 280.5332641601563 215.2906036376953 280.3546752929688 219.507568359375 C 280.1539916992188 224.2455749511719 279.5994873046875 231.7001647949219 278.0972595214844 240.3069763183594 C 276.4054870605469 249.9999847412109 273.8802185058594 259.1565246582031 270.5915832519531 267.5223083496094 C 266.4573974609375 278.0389709472656 261.0969848632813 287.3334045410156 254.6592102050781 295.1473999023438 C 248.2439880371094 302.9338073730469 239.7244873046875 310.5025329589844 229.3373413085938 317.6434020996094 C 221.0874328613281 323.3149719238281 211.6381683349609 328.7378845214844 201.2519836425781 333.7615356445313 C 192.0305786132813 338.2217407226563 183.7543487548828 341.5387573242188 178.435302734375 343.5359802246094 C 172.6517486572266 345.7075805664063 169.0890197753906 346.8107604980469 168.9402008056641 346.8566589355469 L 168.8194427490234 346.8938903808594 L 168.6959838867188 346.9208374023438 L 148.6722106933594 351.2923889160156 L 148.6722106933594 352.7762451171875 L 145.2740173339844 352.0343322753906 L 141.8757019042969 352.7763366699219 Z" stroke="none"/>
          <path d="M 145.6722106933594 349.0505981445313 L 145.6722106933594 348.876708984375 L 168.0561218261719 343.9898986816406 C 168.0561218261719 343.9898986816406 224.9991149902344 326.4291076660156 252.3438110351563 293.2398071289063 C 279.6876220703125 260.0505065917969 277.4322204589844 211.2344970703125 277.4322204589844 211.2344970703125 L 279.4485168457031 200.7471008300781 C 286.4856262207031 183.6728057861328 290.3661193847656 164.9667510986328 290.3661193847656 145.3491058349609 C 290.3661193847656 65.07540130615234 225.3654174804688 -9.277343906433089e-07 145.1826171875 -9.277343906433089e-07 C 65.00071716308594 -9.277343906433089e-07 -0.0008828124846331775 65.07540130615234 -0.0008828124846331775 145.3491058349609 C -0.0008828124846331775 165.2803497314453 4.004617214202881 184.2704010009766 11.25646686553955 201.5642547607422 L 13.1157169342041 211.2344970703125 C 13.1157169342041 211.2344970703125 10.86031723022461 260.0505065917969 38.20411682128906 293.2398071289063 C 65.54882049560547 326.4291076660156 122.491813659668 343.9898986816406 122.491813659668 343.9898986816406 L 144.8757171630859 348.876708984375 L 144.8757171630859 349.0505981445313 L 145.2739715576172 348.9636535644531 L 145.6722106933594 349.0505981445313 M 145.5717620849609 355.0390014648438 C 145.2147827148438 355.0390014648438 144.8566589355469 355.0051879882813 144.5010681152344 354.9350891113281 C 144.00341796875 354.8841552734375 143.5104064941406 354.7779541015625 143.03955078125 354.6171875 L 121.2120666503906 349.8518371582031 C 118.328369140625 348.9847412109375 61.73801803588867 331.2395629882813 33.57336807250977 297.0550537109375 C 6.626259326934814 264.3472900390625 6.905053615570068 218.3424377441406 7.095447063446045 211.7007141113281 L 5.480878829956055 203.3031005859375 C -2.138295888900757 184.9208526611328 -6.000882625579834 165.4262390136719 -6.000882625579834 145.3491058349609 C -6.000882625579834 61.8948974609375 61.81976699829102 -6.000000953674316 145.1826171875 -6.000000953674316 C 228.5454711914063 -6.000000953674316 296.3661193847656 61.8948974609375 296.3661193847656 145.3491058349609 C 296.3661193847656 165.1135559082031 292.6185913085938 184.3281860351563 285.2275695800781 202.4678497314453 L 283.4524841308594 211.7006530761719 C 283.6428833007813 218.3423767089844 283.9216918945313 264.3472900390625 256.974609375 297.0549926757813 C 228.8099212646484 331.2395629882813 172.2195739746094 348.9847412109375 169.8243103027344 349.7234497070313 L 148.0218963623047 354.5040588378906 C 147.2494201660156 354.8502807617188 146.4144287109375 355.0390014648438 145.5717620849609 355.0390014648438 Z" stroke="none" fill="#8d5927"/>
        </g>
        <path id="Path_38" data-name="Path 38" d="M2724.222,3346.88l4.4-50.615,19.073-11.737,16.872,5.135v21.273h32.276l12.47-14.671,10.27,34.477-52.082,33.01Z" transform="translate(-2137.319 -2911.286)" fill="url(#radial-gradient)"/>
        <path id="Path_39" data-name="Path 39" d="M2819.584,3346.88l-4.4-50.615-19.072-11.737-16.872,5.135v21.273h-32.276l-12.471-14.671-10.27,34.477,52.083,33.01Z" transform="translate(-1985.869 -2911.286)" fill="url(#radial-gradient-2)"/>
        <g id="Group_54" data-name="Group 54" transform="translate(598.692 314.848)">
          <g id="Group_53" data-name="Group 53" transform="translate(0 0)">
            <path id="Path_32" data-name="Path 32" d="M2741.882,3270.879c2.367-2.958,24.465-32.948,24.465-32.948h16.573l32.358,17.363s8.681,49.72-32.358,55.244h-21.308l-8.681-14.206Z" transform="translate(-2741.865 -3208.133)" fill="url(#linear-gradient)"/>
            <g id="Ellipse_5" data-name="Ellipse 5" transform="translate(13.308 27.152)" stroke="#5d3a0d" stroke-width="5" fill="url(#linear-gradient-2)">
              <ellipse cx="27" cy="35.5" rx="27" ry="35.5" stroke="none"/>
              <ellipse cx="27" cy="35.5" rx="24.5" ry="33" fill="none"/>
            </g>
            <g id="Group_44" data-name="Group 44" transform="translate(0 27.699)">
              <path id="Path_27" data-name="Path 27" d="M2948.918,3267.1s-23.436-23.16-41.909-19.852-31.983,33.086-31.983,33.086" transform="translate(-2875.026 -3246.92)" fill="none" stroke="#5d3a0d" stroke-linecap="round" stroke-linejoin="round" stroke-width="8"/>
              <path id="Path_29" data-name="Path 29" d="M2938.524,3308.062h-20.283l-10.984-13.98" transform="translate(-2898.27 -3233.38)" fill="none" stroke="#5d3a0d" stroke-linecap="round" stroke-linejoin="round" stroke-width="5"/>
            </g>
            <g id="Ellipse_6" data-name="Ellipse 6" transform="translate(30.308 43.152)" fill="#5d3a0d" stroke="#5d3a0d" stroke-width="5">
              <ellipse cx="13.5" cy="17.5" rx="13.5" ry="17.5" stroke="none"/>
              <ellipse cx="13.5" cy="17.5" rx="11" ry="15" fill="none"/>
            </g>
            <g id="Group_48" data-name="Group 48" transform="translate(22.582 43.331)">
              <g id="Group_47" data-name="Group 47" transform="translate(0 0)">
                <path id="Path_30" data-name="Path 30" d="M8.871,0A8.871,8.871,0,1,1,0,8.871,8.871,8.871,0,0,1,8.871,0Z" transform="translate(0.519 0.107)" fill="#eca437"/>
                <ellipse id="Ellipse_9" data-name="Ellipse 9" cx="6.5" cy="7" rx="6.5" ry="7" transform="translate(-0.274 -0.179)" fill="#fff7dc"/>
              </g>
              <path id="Path_31" data-name="Path 31" d="M3.92,1.826c.945,10.552,9.728,18.228,5.606,19S2.1,18,.7,13.25-.18-4.83,3.92,1.826Z" transform="translate(0.404 29.354) rotate(-25)" fill="#efe4bd"/>
            </g>
            <path id="Path_48" data-name="Path 48" d="M0,14.787s18,15.17,34.723,12.174S76.661,0,76.661,0" transform="matrix(-0.988, -0.156, 0.156, -0.988, 207.321, 39.008)" fill="none" stroke="#5d3a0d" stroke-linecap="round" stroke-linejoin="round" stroke-width="6"/>
          </g>
          <g id="Group_52" data-name="Group 52" transform="translate(136.862 27.586)">
            <path id="Path_33" data-name="Path 33" d="M2816.045,3270.879c-2.367-2.958-24.465-32.948-24.465-32.948h-16.573l-32.357,17.363s-8.681,49.72,32.357,55.244h21.309l8.681-14.206Z" transform="translate(-2738.901 -3235.719)" fill="url(#linear-gradient)"/>
            <g id="Ellipse_4" data-name="Ellipse 4" transform="translate(10.446 -0.435)" stroke="#5d3a0d" stroke-width="5" fill="url(#linear-gradient-2)">
              <ellipse cx="27.5" cy="35.5" rx="27.5" ry="35.5" stroke="none"/>
              <ellipse cx="27.5" cy="35.5" rx="25" ry="33" fill="none"/>
            </g>
            <path id="Path_27-2" data-name="Path 27" d="M2875.026,3267.1s23.436-23.16,41.909-19.852,31.983,33.086,31.983,33.086" transform="translate(-2875.026 -3246.807)" fill="none" stroke="#5d3a0d" stroke-linecap="round" stroke-linejoin="round" stroke-width="8"/>
            <path id="Path_29-2" data-name="Path 29" d="M2907.257,3308.062h20.283l10.984-13.98" transform="translate(-2873.618 -3233.267)" fill="none" stroke="#5d3a0d" stroke-linecap="round" stroke-linejoin="round" stroke-width="5"/>
            <g id="Ellipse_7" data-name="Ellipse 7" transform="translate(21.446 15.565)" fill="#5d3a0d" stroke="#5d3a0d" stroke-width="5">
              <ellipse cx="13.5" cy="17.5" rx="13.5" ry="17.5" stroke="none"/>
              <ellipse cx="13.5" cy="17.5" rx="11" ry="15" fill="none"/>
            </g>
            <g id="Group_49" data-name="Group 49" transform="translate(15.513 15.744)">
              <g id="Group_47-2" data-name="Group 47" transform="translate(0.115 0)">
                <path id="Path_30-2" data-name="Path 30" d="M8.871,0A8.871,8.871,0,1,1,0,8.871,8.871,8.871,0,0,1,8.871,0Z" transform="translate(0 0.107)" fill="#eca437"/>
                <ellipse id="Ellipse_9-2" data-name="Ellipse 9" cx="6.5" cy="7" rx="6.5" ry="7" transform="translate(-0.182 -0.179)" fill="#fff7dc"/>
              </g>
              <path id="Path_31-2" data-name="Path 31" d="M3.92,1.826c.945,10.552,9.728,18.228,5.606,19S2.1,18,.7,13.25-.18-4.83,3.92,1.826Z" transform="translate(0 29.354) rotate(-25)" fill="#efe4bd"/>
            </g>
          </g>
        </g>
        <g id="Group_56" data-name="Group 56" transform="translate(674.305 401.558)">
          <path id="Path_37" data-name="Path 37" d="M2826.053,3313.619l-13.026,21.709,9.924,11.785,6.823-6.823,11.165,6.823,10.544-6.823,9.3,6.823,11.165-11.785-20.469-25.43-10.544-6.2-11.165,6.2Z" transform="translate(-2811.302 -3303.695)" fill="rgba(220,134,83,0)"/>
          <g id="Group_51" data-name="Group 51" transform="translate(0 15.695)">
            <path id="Path_34" data-name="Path 34" d="M2823.336,3317.417l-10.086,17.729,10.086,7.485" transform="translate(-2813.25 -3317.417)" fill="none" stroke="#8d5927" stroke-linecap="round" stroke-linejoin="round" stroke-width="4"/>
            <path id="Path_35" data-name="Path 35" d="M2811.361,3317.722l11.919,17.433-10.086,7.485" transform="translate(-2762.711 -3317.426)" fill="none" stroke="#8d5927" stroke-linecap="round" stroke-linejoin="round" stroke-width="4"/>
            <path id="Path_36" data-name="Path 36" d="M0,1.942,11.273,7.119,22.248,0" transform="matrix(0.999, 0.035, -0.035, 0.999, 18.9, 19.193)" fill="none" stroke="#8d5927" stroke-linecap="round" stroke-width="3"/>
          </g>
        </g>
        <path id="Path_42" data-name="Path 42" d="M152.4,0A152.4,152.4,0,0,0,0,152.4c0,12.026,4.733,36.752,8.695,44.675,1.86-17.359.99-17.826,9.9-16.836,1.358-5.913-1.634-22,0-23.768,1.077-1.164,11.508,12.612,12.875,10.785,1.9-2.546,2.559-23.95,4.952-26.63,3.216-3.6,5.137,13.473,8.913,8.913,2.93-3.538,5.756-25.188,8.913-28.72,3.7-4.141,9.057,13.46,12.875,8.913,3.309-3.942,1.479-17.855,4.952-21.788,4.147-4.7,3.515,12.931,7.923,7.923,4.837-5.5,2.783-15.472,7.923-20.8,3.328-3.447,7.358,12.478,10.894,8.913,5.008-5.049,5.648-17.054,10.894-21.788,3.189-2.878,9.585,15.729,12.875,12.875,5.989-5.2,9.289-30.571,15.442-34.909,4.085-2.88,7.359,19.928,11.648,17.31C166.837,67,183.9,60.165,199.813,60.165c14.73,0,6.735,25.626,17.845,34.909,2.18,1.821,4.686-15,6.932-12.875,3.322,3.137,10.578,21.959,13.865,25.749,2.886,3.328,7.923-12.875,7.923-12.875l9.9,20.8,8.913-11.884s-3.865,27.289,0,36.643c.987,2.389,8.552-13.486,9.9-10.894,1.965,3.772,3.74,22.3,5.942,26.739,2.094,4.224,10.634-3.422,12.875,0,2.084,3.184,6.932,7.923,5.942,24.759,3.957,8.664,4.952-16.2,4.952-28.829A152.4,152.4,0,0,0,152.4,0Z" transform="translate(551.737 173.708)" fill="#5d3a0d"/>
        <path id="Path_47" data-name="Path 47" d="M0,0S13.372,7.827,27.83,7.827,57.835,0,57.835,0" transform="translate(685.277 480.044) rotate(-8)" fill="none" stroke="#8d5927" stroke-linecap="round" stroke-linejoin="round" stroke-width="5"/>
        <path id="Path_49" data-name="Path 49" d="M0,12.565S18-2.6,34.723.392s41.938,26.96,41.938,26.96" transform="matrix(0.995, -0.105, 0.105, 0.995, 599.68, 321.845)" fill="none" stroke="#5d3a0d" stroke-linecap="round" stroke-linejoin="round" stroke-width="6"/>
        <path id="Union_6" data-name="Union 6" d="M-2385.72-2774.683h-164.508l-7.772-82.485,25.647-44.992,91.712-37.841,54.921,8.963v-.283l58.292-8.68,91.712,37.841,25.648,44.992-7.772,82.485Z" transform="translate(3089.706 3506)" fill="#f8e067" stroke="#e3c117" stroke-linecap="round" stroke-linejoin="round" stroke-width="6"/>
      </g>
    </g>
    <g id="Group_61" data-name="Group 61" transform="translate(-195)">
      <rect id="Rectangle_10" data-name="Rectangle 10" width="592" height="209" transform="translate(990 731)" fill="#3778bb"/>
      <text id="Dallas" transform="translate(1123 885)" fill="#fff" font-size="120" font-family="SegoeUI-Semibold, Segoe UI" font-weight="600"><tspan x="0" y="0">Dallas</tspan></text>
    </g>
  </g>
</svg>
